# xmcd
#
# Track frame offsets:
#	150
#	12377
#	27070
#	44143
#	58349
#	75299
#	87201
#	104074
#	118666
#	138128
#	148930
#	163252
#	176502
#	189886
#	205860
#	219559
#	235149
#	249624
#	265759
#
# Disc length: 3749 seconds
#
# Revision: 1
# Processed by: cddbd v1.5.2PL0 Copyright (c) Steve Scherf et al.
# Submitted via: audiograbber 1.83.01
#
DISCID=100ea313
DTITLE=Various Artist - Hott Country 186
DYEAR=2011
DGENRE=Country
TTITLE0=Terri Clark - We'er For A Good Time
TTITLE1=Miranda Lambert - Baggage Claim
TTITLE2=Blake Shelton - God Gave Me You
TTITLE3=Jason Jones - Ferris Wheel
TTITLE4=Jessie Farrell - Turn You Down
TTITLE5=Gord Bamford - Hank Williams Lonesome
TTITLE6=Martina McBride - I'm Gonna Love You Through It
TTITLE7=Toby Keith - Made In America
TTITLE8=Taylor Swift - Sparks Fly
TTITLE9=Victoria Banks - I'm Gone
TTITLE10=Ashton Shepherd - Where Country Grows
TTITLE11=Dean Brody - Little Yellow Blanket
TTITLE12=Brett Eldredge - It Ain't Gotta Be Love
TTITLE13=Kira Isabelle - Love Me like That
TTITLE14=Stellas - Perfect
TTITLE15=Justin Moore - Bait A Hook
TTITLE16=Codie Prevost - Honky Tonk Groupie
TTITLE17=Jason Kirkness - No Cowboy
TTITLE18=Eric Paslay - Never Really Wanted
EXTD=August 2011
EXTT0=
EXTT1=
EXTT2=
EXTT3=
EXTT4=
EXTT5=
EXTT6=
EXTT7=
EXTT8=
EXTT9=
EXTT10=
EXTT11=
EXTT12=
EXTT13=
EXTT14=
EXTT15=
EXTT16=
EXTT17=
EXTT18=
PLAYORDER=
